# xmcd
#
# Track frame offsets:
# 150
# 19246
# 42294
#
# Disc length: 1048 seconds
#
# Revision: 1
# Processed by: cddbd v1.5.2PL0 Copyright (c) Steve Scherf et al.
# Submitted via: CedeCatalogueitor 2.6.0.6 http://personales.ya.com/cdcatalogueitor
#
DISCID=1d041603
DTITLE=Silver Columns - Cavalier Cd Single
DYEAR=1900
DGENRE=
TTITLE0=Cavalier
TTITLE1=Cavalier Rmx
TTITLE2=Cavalier Rmx
EXTD=
EXTT0=
EXTT1=
EXTT2=
PLAYORDER=
